<svg width="360" height="108" viewBox="0 0 360 108" fill="none" xmlns="http://www.w3.org/2000/svg">
<circle cx="25" cy="25" r="25" fill="#F2F2F2"/>
<path d="M28.25 25.7023C28.7886 25.7023 29.3614 25.7568 29.9545 25.8659V26.8886C29.5318 26.7795 28.9591 26.725 28.25 26.725C26.9545 26.725 25.9386 26.95 25.1818 27.4V26.2477C25.9795 25.8864 27.0023 25.7023 28.25 25.7023ZM25.1818 24.4273C26.0614 24.0659 27.0841 23.8886 28.25 23.8886C28.7886 23.8886 29.3614 23.9364 29.9545 24.0455V25.0682C29.5318 24.9591 28.9591 24.9045 28.25 24.9045C26.9545 24.9045 25.9386 25.1364 25.1818 25.5795V24.4273ZM28.25 23.0909C26.9545 23.0909 25.9386 23.3091 25.1818 23.7727V22.6409C26.0205 22.2591 27.0432 22.0682 28.25 22.0682C28.7886 22.0682 29.3614 22.1227 29.9545 22.225V23.2818C29.45 23.1523 28.8705 23.0909 28.25 23.0909ZM30.6364 28.5455V20.7045C29.9273 20.4795 29.1295 20.3636 28.25 20.3636C26.8523 20.3636 25.6045 20.7045 24.5 21.3864V29.2273C25.6045 28.5455 26.8523 28.2045 28.25 28.2045C29.0614 28.2045 29.8591 28.3136 30.6364 28.5455ZM28.25 19C29.8523 19 31.1068 19.3409 32 20.0227V29.95C32 30.0318 31.9659 30.1136 31.8909 30.1886C31.8159 30.25 31.7341 30.3045 31.6591 30.3045C31.5841 30.3045 31.5295 30.2909 31.4886 30.2705C30.6159 29.8 29.5318 29.5682 28.25 29.5682C26.8523 29.5682 25.6045 29.9091 24.5 30.5909C23.5864 29.9091 22.3386 29.5682 20.75 29.5682C19.6182 29.5682 18.5341 29.8136 17.5114 30.2977C17.4909 30.3045 17.4636 30.3045 17.4295 30.3182C17.4023 30.325 17.375 30.3318 17.3409 30.3318C17.2659 30.3318 17.1841 30.3045 17.1091 30.25C17.0341 30.175 17 30.1 17 30.0114V20.0227C17.9136 19.3409 19.1682 19 20.75 19C22.3386 19 23.5864 19.3409 24.5 20.0227C25.4136 19.3409 26.6614 19 28.25 19Z" fill="#4D4D4D"/>
<path d="M24.1318 77.8906H18.5332V78.6836H17.8018V71.9229C17.3779 72.3102 17.0658 72.5905 16.8652 72.7637L16.4072 72.2578C17.9658 70.9134 18.973 69.6305 19.4287 68.4092H17.583V70.0225H16.8652V67.7119H19.7227C19.9277 67.1559 20.0667 66.7298 20.1396 66.4336L20.8027 66.5908C20.7207 66.96 20.6068 67.3337 20.4609 67.7119H23.8242V70.0225H23.1133V68.4092H20.2012C19.8366 69.307 19.2806 70.2116 18.5332 71.123H21.0078C20.821 70.5716 20.6592 70.1751 20.5225 69.9336L21.165 69.7012C21.3838 70.207 21.5479 70.681 21.6572 71.123H23.9336V71.7998H21.5273V73.0986H23.7285V73.7549H21.5273V75.1289H23.7285V75.7578H21.5273V77.2139H24.1318V77.8906ZM20.8164 73.0986V71.7998H18.5332V73.0986H20.8164ZM20.8164 75.1289V73.7549H18.5332V75.1289H20.8164ZM20.8164 77.2139V75.7578H18.5332V77.2139H20.8164ZM16.4209 67.8076H14.6094C14.4043 69.1885 14.1149 70.3415 13.7412 71.2666H16.168V77.5488H15.4775V76.9473H13.9531V77.8291H13.2559V72.4014C13.0508 72.8115 12.7887 73.2536 12.4697 73.7275L11.8955 73.2559C12.9437 71.8431 13.6296 70.027 13.9531 67.8076H12.1758V67.083H16.4209V67.8076ZM15.4502 76.2637V71.9775H13.9531V76.2637H15.4502ZM30.291 68.5938H25.9639V67.876H27.8438C27.6751 67.3929 27.4883 66.9645 27.2832 66.5908L27.9121 66.3516C28.222 66.9076 28.4453 67.4157 28.582 67.876H30.291V68.5938ZM37.6123 66.7891C37.5758 67.819 37.5143 68.8193 37.4277 69.79C37.3457 70.7607 37.2751 71.3372 37.2158 71.5195C37.1566 71.6973 37.0495 71.859 36.8945 72.0049C36.7441 72.1507 36.5345 72.2601 36.2656 72.333C35.9967 72.4014 35.5273 72.4196 34.8574 72.3877L34.6455 71.6426C35.0921 71.6654 35.4134 71.6768 35.6094 71.6768C36.0833 71.6768 36.3932 71.5423 36.5391 71.2734C36.6895 71.0046 36.8057 69.7467 36.8877 67.5H34.9941C34.8164 70.3392 33.488 72.1462 31.0088 72.9209L30.585 72.3467C31.665 71.9775 32.5241 71.4352 33.1621 70.7197C32.7064 70.1911 32.123 69.6921 31.4121 69.2227L31.877 68.7305C32.4785 69.1087 33.0413 69.5758 33.5654 70.1318C33.9756 69.3981 34.2103 68.5208 34.2695 67.5H30.7969V66.7891H37.6123ZM30.0244 70.624H26.2715V69.9199H30.0244V70.624ZM30.0244 72.6133H26.2715V71.9092H30.0244V72.6133ZM35.3633 74.3633L34.8574 74.8486C34.3743 74.1468 33.8411 73.5179 33.2578 72.9619L33.7227 72.4561C34.4473 73.1305 34.9941 73.7663 35.3633 74.3633ZM38.1318 77.0908L37.4619 77.3984C37.266 76.4004 36.9105 75.318 36.3955 74.1514L36.9971 73.8848C37.5531 75.1243 37.9313 76.193 38.1318 77.0908ZM29.7578 78.335H29.0605V77.583H27.2148V78.6699H26.5107V73.9668H29.7578V78.335ZM29.0605 76.8789V74.6846H27.2148V76.8789H29.0605ZM36.2246 75.9424C36.1745 76.9222 36.0833 77.5557 35.9512 77.8428C35.819 78.1253 35.6481 78.3076 35.4385 78.3896C35.2288 78.4762 34.7959 78.5195 34.1396 78.5195C33.5335 78.5195 33.1165 78.4329 32.8887 78.2598C32.6608 78.0911 32.5469 77.7812 32.5469 77.3301V73.9805H33.2441V77.3984C33.2441 77.5306 33.3034 77.6377 33.4219 77.7197C33.5449 77.7972 33.889 77.8359 34.4541 77.8359C34.8779 77.8359 35.1491 77.7562 35.2676 77.5967C35.3906 77.4372 35.4909 76.8242 35.5684 75.7578L36.2246 75.9424ZM31.8291 74.165C31.5146 75.6644 31.1569 76.7992 30.7559 77.5693L30.1133 77.2891C30.5645 76.332 30.904 75.2337 31.1318 73.9941L31.8291 74.165ZM23.9062 92.1699C23.4323 92.8398 22.9948 93.3685 22.5938 93.7559L22.0605 93.25C22.4206 92.8854 22.7601 92.4889 23.0791 92.0605H17.959C17.5807 92.5391 17.1546 92.9583 16.6807 93.3184L16.1953 92.833C16.9974 92.2314 17.6742 91.4089 18.2256 90.3652L18.9092 90.6045L18.4648 91.377H23.9062V92.1699ZM15.8467 91.7666H12.3193V91.0967H15.8467V91.7666ZM24.2002 94.7334L23.8926 95.417C22.1016 95.1527 20.707 94.6081 19.709 93.7832C18.9069 94.5534 17.8382 95.0843 16.5029 95.376L16.127 94.7061C17.8451 94.4417 19.0299 93.7422 19.6816 92.6074L20.4473 92.7441C20.4199 92.8581 20.3128 93.0404 20.126 93.291C21.0693 94.0658 22.4274 94.5465 24.2002 94.7334ZM15.9561 94.2891H12.0391V93.585H15.9561V94.2891ZM22.1016 100.742H16.5439L16.8926 101.2C15.4479 101.929 13.9167 102.463 12.2988 102.8L11.9365 102.137C13.4359 101.886 14.86 101.421 16.209 100.742H14.0352V95.6152H22.1016V100.742ZM21.377 97.0713V96.2715H14.7803V97.0713H21.377ZM21.377 98.5684V97.7002H14.7803V98.5684H21.377ZM21.377 100.079V99.1973H14.7803V100.079H21.377ZM24.1182 102.171L23.7832 102.813C22.4206 102.303 21.0671 101.911 19.7227 101.638L20.0713 101.009C21.5251 101.305 22.874 101.692 24.1182 102.171ZM30.5576 92.5938H25.9092V91.9033H28.083C27.9554 91.557 27.7526 91.1377 27.4746 90.6455L28.1104 90.3379C28.3883 90.8301 28.6299 91.3519 28.835 91.9033H30.5576V92.5938ZM38.5215 99.5527C38.4212 100.446 38.2458 101.184 37.9951 101.768C37.749 102.351 37.4688 102.643 37.1543 102.643C36.6667 102.643 36.334 102.155 36.1562 101.18C35.9785 100.2 35.8896 99.3864 35.8896 98.7393V91.5273H33.0938V95.9229H35.3018V96.5928H33.0938V102.745H32.3623V96.5928H30.7422V95.9229H32.3623V91.5273H30.8516V90.8574H36.6074V98.2471C36.6074 99.4502 36.6781 100.355 36.8193 100.961C36.9652 101.567 37.07 101.87 37.1338 101.87C37.1976 101.87 37.3161 101.574 37.4893 100.981C37.6624 100.389 37.7786 99.7806 37.8379 99.1562L38.5215 99.5527ZM30.1543 94.6377H26.2441V93.9473H30.1543V94.6377ZM30.1133 96.6406H26.2441V95.9775H30.1133V96.6406ZM30.1133 102.492H29.3682V101.651H27.0986V102.711H26.3604V98.0215H30.1133V102.492ZM29.3682 100.975V98.7119H27.0986V100.975H29.3682Z" fill="#4D4D4D"/>
<path d="M69.166 22.1061V25.8939H77.6887L74.3743 29.2083L76.666 31.5L84.166 24L76.666 16.5L74.3743 18.7917L77.6887 22.1061H69.166Z" fill="#E50057"/>
<circle cx="128.334" cy="25" r="25" fill="#F2F2F2"/>
<path d="M125.334 24.5H123.667V26.1667H125.334V24.5ZM128.667 24.5H127.001V26.1667H128.667V24.5ZM132.001 24.5H130.334V26.1667H132.001V24.5ZM133.667 18.6667H132.834V17H131.167V18.6667H124.501V17H122.834V18.6667H122.001C121.076 18.6667 120.334 19.4167 120.334 20.3333V32C120.334 32.442 120.51 32.866 120.822 33.1785C121.135 33.4911 121.559 33.6667 122.001 33.6667H133.667C134.109 33.6667 134.533 33.4911 134.846 33.1785C135.158 32.866 135.334 32.442 135.334 32V20.3333C135.334 19.8913 135.158 19.4674 134.846 19.1548C134.533 18.8423 134.109 18.6667 133.667 18.6667ZM133.667 32H122.001V22.8333H133.667V32Z" fill="#4D4D4D"/>
<path d="M118.142 68.5664L117.608 69.0381C116.943 68.277 116.31 67.639 115.708 67.124L116.166 66.5908C116.895 67.1924 117.554 67.8509 118.142 68.5664ZM127.117 71.2666H124.219C124.087 71.2666 123.934 71.1846 123.761 71.0205C123.588 70.8564 123.501 70.6992 123.501 70.5488V66.8301H126.68V69.4619H124.191V70.3711C124.191 70.4212 124.219 70.4759 124.273 70.5352C124.328 70.5944 124.381 70.624 124.431 70.624H127.117V71.2666ZM125.982 68.7715V67.5H124.191V68.7715H125.982ZM122.749 70.8906C121.906 71.0957 120.767 71.3509 119.331 71.6562L119.051 71.0273C119.219 70.8815 119.304 70.7471 119.304 70.624V66.8301H122.4V69.4619H119.987V70.8154C120.867 70.6423 121.756 70.4372 122.653 70.2002L122.749 70.8906ZM121.724 68.7715V67.5H119.987V68.7715H121.724ZM127.521 77.8291L127.254 78.5469H122.537C121.161 78.5469 120.083 78.4147 119.304 78.1504C118.524 77.8906 117.861 77.4668 117.314 76.8789C116.781 77.7904 116.264 78.4261 115.763 78.7861L115.257 78.335C116.483 77.2686 117.289 75.7669 117.677 73.8301H115.619V73.126C116.408 72.096 117.034 71.1504 117.499 70.2891H115.298V69.5713H118.285V70.2754C117.574 71.5104 116.975 72.4606 116.487 73.126H118.367V73.8164C118.235 74.6139 117.987 75.4069 117.622 76.1953C118.502 77.2845 120.037 77.8291 122.229 77.8291H127.521ZM127.309 75.0742H118.675V74.3906H120.972V73.2969H119.023V72.5928H120.972V71.7109H121.683V72.5928H124.246V71.7109H124.957V72.5928H126.987V73.2969H124.957V74.3906H127.309V75.0742ZM124.246 74.3906V73.2969H121.683V74.3906H124.246ZM121.949 75.8467C121.015 76.4118 120.186 76.8219 119.461 77.0771L118.982 76.4893C119.794 76.2067 120.614 75.8148 121.443 75.3135L121.949 75.8467ZM126.946 76.4756L126.598 77.0498C125.686 76.5758 124.804 76.2021 123.952 75.9287L124.328 75.3408C125.208 75.6188 126.08 75.9971 126.946 76.4756ZM132.873 69.6807H131.677V72.709C132.123 72.5221 132.483 72.3581 132.757 72.2168L132.812 72.9619C132.561 73.0941 132.183 73.2604 131.677 73.4609V77.8018C131.677 78.0433 131.588 78.2507 131.41 78.4238C131.232 78.597 130.927 78.6836 130.494 78.6836H129.872L129.667 77.959C130 77.9863 130.335 78 130.672 78C130.895 78 131.007 77.8838 131.007 77.6514V73.7275C130.419 73.96 129.879 74.1605 129.387 74.3291L129.216 73.6318C129.703 73.486 130.3 73.2809 131.007 73.0166V69.6807H129.312V68.9971H131.007V66.4473H131.677V68.9971H132.873V69.6807ZM141.493 76.8926H137.672V78.7109H136.947V76.8926H133.119V76.2227H136.947V75.1016H133.666V74.418H135.532C135.409 73.9668 135.222 73.4723 134.972 72.9346H133.29V72.2715H136.961V71.2119H133.892V70.5488H136.961V69.5576H133.447V66.7891H141.158V69.5576H137.672V70.5488H140.666V71.2119H137.672V72.2715H141.281V72.9346H139.579C139.379 73.4359 139.158 73.9303 138.916 74.418H140.878V75.1016H137.672V76.2227H141.493V76.8926ZM140.447 68.9014V67.4453H138.82V68.9014H140.447ZM138.137 68.9014V67.4453H136.469V68.9014H138.137ZM135.751 68.9014V67.4453H134.131V68.9014H135.751ZM138.793 72.9346H135.751C135.974 73.4814 136.147 73.9759 136.271 74.418H138.123C138.374 73.9668 138.597 73.4723 138.793 72.9346ZM119.119 98.1787C117.688 98.9762 116.476 99.555 115.482 99.915L115.188 99.1973C115.84 98.9922 116.437 98.7507 116.979 98.4727V94.5215H115.359V93.8242H116.979V90.5088H117.711V93.8242H119.092V94.5215H117.711V98.1514C118.208 97.9144 118.636 97.6842 118.996 97.4609L119.119 98.1787ZM126.461 94.9316H119.769V90.8164H126.461V94.9316ZM125.743 92.5049V91.5137H120.493V92.5049H125.743ZM125.743 94.2412V93.168H120.493V94.2412H125.743ZM127.438 96.5928H122.325C122.166 96.8799 121.961 97.1989 121.71 97.5498H126.974C126.942 98.3747 126.878 99.2406 126.782 100.147C126.687 101.05 126.604 101.588 126.536 101.761C126.472 101.929 126.365 102.091 126.215 102.246C126.069 102.401 125.889 102.517 125.675 102.595C125.465 102.672 125.073 102.711 124.499 102.711C124.349 102.711 124.194 102.706 124.034 102.697L123.754 101.986C124.128 102.023 124.488 102.041 124.834 102.041C125.212 102.041 125.463 101.995 125.586 101.904C125.709 101.809 125.8 101.686 125.859 101.535C125.919 101.38 125.985 100.956 126.058 100.264C126.135 99.5664 126.19 98.8805 126.222 98.2061H125.381C124.529 100.166 123.025 101.658 120.869 102.684L120.329 102.171C122.439 101.168 123.87 99.8467 124.622 98.2061H123.337C122.425 99.6143 120.926 100.781 118.839 101.706L118.34 101.132C120.309 100.302 121.694 99.3271 122.496 98.2061H121.095C120.475 98.7985 119.771 99.3066 118.982 99.7305L118.463 99.1973C119.876 98.4772 120.89 97.609 121.505 96.5928H118.825V95.8955H127.438V96.5928ZM141.158 93.4893C141.158 93.5804 141.051 93.8743 140.837 94.3711C140.623 94.8633 140.424 95.278 140.242 95.6152C140.06 95.9525 139.859 96.2829 139.641 96.6064C139.426 96.9255 139.194 97.2399 138.943 97.5498L138.355 97.0986C139.203 96.0687 139.866 94.8656 140.345 93.4893H135.122C134.552 94.6833 133.969 95.5924 133.372 96.2168L132.825 95.6973C133.901 94.5397 134.755 92.8057 135.389 90.4951L136.134 90.6729C135.892 91.4613 135.653 92.1517 135.416 92.7441H141.158V93.4893ZM133.475 93.1543H129.605V92.4092H133.475V93.1543ZM141.521 102.137L141.09 102.772C138.702 101.218 137.184 99.5094 136.537 97.6455C135.867 99.6598 134.429 101.348 132.224 102.711L131.752 102.082C132.75 101.517 133.6 100.826 134.302 100.011C135.008 99.195 135.491 98.4089 135.751 97.6523C136.015 96.8958 136.147 95.8385 136.147 94.4805H136.886C136.863 94.6947 136.852 94.9408 136.852 95.2188C136.852 96.1986 137.004 97.028 137.31 97.707C137.615 98.3861 138.084 99.0947 138.718 99.833C139.351 100.567 140.285 101.335 141.521 102.137ZM133.864 98.3633H129.284V97.6455H133.864V98.3633Z" fill="#4D4D4D"/>
<path d="M172.5 22.1061V25.8939H181.023L177.708 29.2083L180 31.5L187.5 24L180 16.5L177.708 18.7917L181.023 22.1061H172.5Z" fill="#E50057"/>
<circle cx="231.666" cy="25" r="25" fill="#F2F2F2"/>
<path d="M234.166 28.75V30.25H223.666V28.75C223.666 28.75 223.666 25.75 228.916 25.75C234.166 25.75 234.166 28.75 234.166 28.75ZM231.541 21.625C231.541 21.1059 231.387 20.5983 231.099 20.1667C230.81 19.735 230.4 19.3985 229.921 19.1999C229.441 19.0012 228.913 18.9492 228.404 19.0505C227.895 19.1518 227.427 19.4018 227.06 19.7689C226.693 20.136 226.443 20.6037 226.341 21.1129C226.24 21.6221 226.292 22.1499 226.491 22.6296C226.69 23.1092 227.026 23.5192 227.458 23.8076C227.889 24.0961 228.397 24.25 228.916 24.25C229.612 24.25 230.28 23.9735 230.772 23.4812C231.264 22.9889 231.541 22.3212 231.541 21.625ZM234.121 25.75C234.582 26.1068 234.959 26.5604 235.226 27.0787C235.493 27.597 235.643 28.1675 235.666 28.75V30.25H238.666V28.75C238.666 28.75 238.666 26.0275 234.121 25.75ZM233.416 19C232.9 18.9972 232.395 19.1515 231.969 19.4425C232.424 20.0791 232.669 20.8423 232.669 21.625C232.669 22.4078 232.424 23.171 231.969 23.8075C232.395 24.0986 232.9 24.2529 233.416 24.25C234.112 24.25 234.78 23.9735 235.272 23.4812C235.764 22.9889 236.041 22.3212 236.041 21.625C236.041 20.9288 235.764 20.2612 235.272 19.7689C234.78 19.2766 234.112 19 233.416 19Z" fill="#4D4D4D"/>
<path d="M221.474 68.5664L220.94 69.0381C220.275 68.277 219.642 67.639 219.04 67.124L219.498 66.5908C220.227 67.1924 220.886 67.8509 221.474 68.5664ZM230.449 71.2666H227.551C227.419 71.2666 227.266 71.1846 227.093 71.0205C226.92 70.8564 226.833 70.6992 226.833 70.5488V66.8301H230.012V69.4619H227.523V70.3711C227.523 70.4212 227.551 70.4759 227.605 70.5352C227.66 70.5944 227.713 70.624 227.763 70.624H230.449V71.2666ZM229.314 68.7715V67.5H227.523V68.7715H229.314ZM226.081 70.8906C225.238 71.0957 224.099 71.3509 222.663 71.6562L222.383 71.0273C222.551 70.8815 222.636 70.7471 222.636 70.624V66.8301H225.732V69.4619H223.319V70.8154C224.199 70.6423 225.088 70.4372 225.985 70.2002L226.081 70.8906ZM225.056 68.7715V67.5H223.319V68.7715H225.056ZM230.853 77.8291L230.586 78.5469H225.869C224.493 78.5469 223.415 78.4147 222.636 78.1504C221.856 77.8906 221.193 77.4668 220.646 76.8789C220.113 77.7904 219.596 78.4261 219.095 78.7861L218.589 78.335C219.815 77.2686 220.621 75.7669 221.009 73.8301H218.951V73.126C219.74 72.096 220.366 71.1504 220.831 70.2891H218.63V69.5713H221.617V70.2754C220.906 71.5104 220.307 72.4606 219.819 73.126H221.699V73.8164C221.567 74.6139 221.319 75.4069 220.954 76.1953C221.834 77.2845 223.369 77.8291 225.562 77.8291H230.853ZM230.641 75.0742H222.007V74.3906H224.304V73.2969H222.355V72.5928H224.304V71.7109H225.015V72.5928H227.578V71.7109H228.289V72.5928H230.319V73.2969H228.289V74.3906H230.641V75.0742ZM227.578 74.3906V73.2969H225.015V74.3906H227.578ZM225.281 75.8467C224.347 76.4118 223.518 76.8219 222.793 77.0771L222.314 76.4893C223.126 76.2067 223.946 75.8148 224.775 75.3135L225.281 75.8467ZM230.278 76.4756L229.93 77.0498C229.018 76.5758 228.136 76.2021 227.284 75.9287L227.66 75.3408C228.54 75.6188 229.412 75.9971 230.278 76.4756ZM236.205 69.6807H235.009V72.709C235.455 72.5221 235.815 72.3581 236.089 72.2168L236.144 72.9619C235.893 73.0941 235.515 73.2604 235.009 73.4609V77.8018C235.009 78.0433 234.92 78.2507 234.742 78.4238C234.564 78.597 234.259 78.6836 233.826 78.6836H233.204L232.999 77.959C233.332 77.9863 233.667 78 234.004 78C234.227 78 234.339 77.8838 234.339 77.6514V73.7275C233.751 73.96 233.211 74.1605 232.719 74.3291L232.548 73.6318C233.035 73.486 233.632 73.2809 234.339 73.0166V69.6807H232.644V68.9971H234.339V66.4473H235.009V68.9971H236.205V69.6807ZM244.825 76.8926H241.004V78.7109H240.279V76.8926H236.451V76.2227H240.279V75.1016H236.998V74.418H238.864C238.741 73.9668 238.554 73.4723 238.304 72.9346H236.622V72.2715H240.293V71.2119H237.224V70.5488H240.293V69.5576H236.779V66.7891H244.49V69.5576H241.004V70.5488H243.998V71.2119H241.004V72.2715H244.613V72.9346H242.911C242.711 73.4359 242.49 73.9303 242.248 74.418H244.21V75.1016H241.004V76.2227H244.825V76.8926ZM243.779 68.9014V67.4453H242.152V68.9014H243.779ZM241.469 68.9014V67.4453H239.801V68.9014H241.469ZM239.083 68.9014V67.4453H237.463V68.9014H239.083ZM242.125 72.9346H239.083C239.306 73.4814 239.479 73.9759 239.603 74.418H241.455C241.706 73.9668 241.929 73.4723 242.125 72.9346ZM230.853 102.157L230.306 102.711C227.394 100.66 225.523 97.8415 224.693 94.2549C224.101 97.527 222.244 100.337 219.122 102.684L218.616 102.082C219.678 101.357 220.649 100.451 221.528 99.3613C222.408 98.2721 223.078 97.0736 223.538 95.7656C223.998 94.4531 224.244 92.6803 224.276 90.4473H225.056C225.028 93.0312 225.543 95.3213 226.601 97.3174C227.658 99.3089 229.075 100.922 230.853 102.157ZM244.791 93.4072H244.148C244.053 96.3285 243.561 98.5843 242.672 100.175C243.164 100.89 243.861 101.558 244.764 102.178L244.354 102.752C243.456 102.191 242.738 101.531 242.2 100.77C241.535 101.512 240.735 102.173 239.801 102.752L239.377 102.178C240.402 101.521 241.204 100.849 241.783 100.161C241.145 98.9033 240.756 97.5954 240.614 96.2373L241.271 96.0117C241.521 97.5612 241.849 98.7188 242.255 99.4844C242.683 98.7279 242.993 97.7686 243.185 96.6064C243.317 95.8135 243.412 94.7471 243.472 93.4072H241.564C241.118 94.542 240.612 95.4626 240.047 96.1689L239.493 95.7588C240.391 94.5921 241.109 92.8148 241.646 90.4268L242.323 90.5498C242.228 91.1377 242.048 91.86 241.783 92.7168H244.791V93.4072ZM240.115 93.3662H239.165V94.9658H236.745V95.793H239.172V97.9395H236.711C236.451 98.3587 236.212 98.7074 235.993 98.9854H237.702C237.78 98.8532 237.848 98.6868 237.907 98.4863L238.604 98.6572C238.586 98.7757 238.554 98.8851 238.509 98.9854H239.992V99.6074H238.222C237.884 100.255 237.461 100.779 236.95 101.18C237.748 101.54 238.42 101.872 238.967 102.178L238.509 102.697C237.83 102.314 237.098 101.961 236.314 101.638C235.439 102.175 234.33 102.529 232.985 102.697L232.726 102.034C233.906 101.884 234.831 101.64 235.501 101.303C234.808 101.011 234.186 100.781 233.635 100.612C233.881 100.353 234.182 100.018 234.537 99.6074H232.603V98.9854H235.077C235.364 98.6208 235.617 98.2721 235.836 97.9395H233.594V95.793H236.055V94.9658H233.594V93.3662H232.603V92.7168H233.594V91.2402H236.055V90.4814H236.745V91.2402H239.165V92.7168H240.115V93.3662ZM238.475 92.7168V91.8486H236.745V92.7168H238.475ZM238.475 94.3301V93.3662H236.745V94.3301H238.475ZM236.055 92.7168V91.8486H234.291V92.7168H236.055ZM236.055 94.3301V93.3662H234.291V94.3301H236.055ZM238.475 97.3037V96.4287H236.745V97.3037H238.475ZM236.055 97.3037V96.4287H234.298V97.3037H236.055ZM237.367 99.6074H235.48C235.376 99.7441 235.171 99.9925 234.865 100.353C235.266 100.476 235.711 100.637 236.198 100.838C236.659 100.546 237.048 100.136 237.367 99.6074Z" fill="#4D4D4D"/>
<path d="M275.834 22.1061V25.8939H284.357L281.042 29.2083L283.334 31.5L290.834 24L283.334 16.5L281.042 18.7917L284.357 22.1061H275.834Z" fill="#E50057"/>
<circle cx="335" cy="25" r="25" fill="#F2F2F2"/>
<path d="M335.25 27.75H338.25V25.5L342 28.875L338.25 32.25V30H335.25V27.75ZM340.5 18H328.5C328.102 18 327.721 18.158 327.439 18.4393C327.158 18.7206 327 19.1022 327 19.5V28.5C327 28.8978 327.158 29.2794 327.439 29.5607C327.721 29.842 328.102 30 328.5 30H334.013C333.837 29.5193 333.749 29.0115 333.75 28.5C333.751 27.5337 334.063 26.5935 334.64 25.8183C335.217 25.0431 336.028 24.4743 336.953 24.1958C337.879 23.9174 338.869 23.9442 339.778 24.2723C340.687 24.6003 341.466 25.2123 342 26.0175V19.5C342 19.1022 341.842 18.7206 341.561 18.4393C341.279 18.158 340.898 18 340.5 18ZM340.5 21L334.5 24.75L328.5 21V19.5L334.5 23.25L340.5 19.5V21Z" fill="#4D4D4D"/>
<path d="M329.176 68.2451L328.547 68.5801C328.305 68.0788 327.9 67.4772 327.33 66.7754L327.959 66.4062C328.547 67.1081 328.952 67.721 329.176 68.2451ZM325.047 68.4775L324.486 68.9971C323.962 68.2588 323.304 67.5729 322.511 66.9395L323.058 66.4609C323.869 67.0762 324.532 67.7484 325.047 68.4775ZM332.717 66.8164C332.43 67.3997 331.983 67.9922 331.377 68.5938L330.775 68.1836C331.354 67.5911 331.792 67.0283 332.088 66.4951L332.717 66.8164ZM334.009 72.3193H330.215C329.937 74.3018 328.713 75.7943 326.544 76.7969L326.011 76.168C328.093 75.3203 329.242 74.0374 329.456 72.3193H326.038V71.6016H329.552C329.579 71.2142 329.593 70.5693 329.593 69.667H326.489V68.9424H333.517V69.667H330.352C330.352 70.0544 330.329 70.6992 330.283 71.6016H334.009V72.3193ZM334.344 77.6924L334.146 78.4785L328.615 78.417C326.61 78.417 325.099 77.8952 324.083 76.8516C323.468 77.64 322.916 78.2598 322.429 78.7109L321.827 78.1846C323.386 76.7764 324.361 75.277 324.753 73.6865H322.258V73.0303C323.183 71.9684 323.953 71.0114 324.568 70.1592H321.95V69.4619H325.525V70.1592C324.682 71.2438 323.935 72.1872 323.283 72.9893H325.525V73.6865C325.298 74.4339 324.942 75.293 324.459 76.2637C324.956 76.7604 325.528 77.1204 326.175 77.3438C326.822 77.5671 327.553 77.6855 328.369 77.6992C329.189 77.7129 330.062 77.7197 330.987 77.7197C332.049 77.7197 333.168 77.7106 334.344 77.6924ZM334.091 76.1543L333.612 76.7832C332.664 75.8079 331.541 74.9261 330.242 74.1377L330.646 73.5635C332.013 74.3701 333.161 75.2337 334.091 76.1543ZM347.373 78.7246H346.621V78.0684H336.764V73.3652H337.495V77.3438H341.72V71.9639H337.352V67.3633H338.11V71.2393H341.72V66.4746H342.431V71.2393H345.992V67.3633H346.73V71.9639H342.465V77.3438H346.621V73.3516H347.373V78.7246ZM327.761 100.024H325.313V102.725H324.596V100.024H321.95V99.3135H324.596V97.7275H322.285V97.0303H323.563C323.454 96.3923 323.258 95.6882 322.976 94.918H322.039V94.2275H324.596V92.7852H322.374V92.1016H324.596V90.5225H325.3V92.1016H327.412V92.7852H325.3V94.2275H327.624V94.918H326.811C326.66 95.6152 326.469 96.3193 326.236 97.0303H327.412V97.7275H325.313V99.3135H327.761V100.024ZM326.065 94.918H323.755C323.974 95.6289 324.151 96.333 324.288 97.0303H325.539C325.767 96.3239 325.942 95.6198 326.065 94.918ZM334.132 102.198L333.729 102.759C333.077 102.344 332.409 101.756 331.726 100.995C331.252 101.61 330.634 102.194 329.873 102.745H329.818L329.347 102.239C330.153 101.701 330.8 101.114 331.288 100.476C330.463 99.2998 329.875 97.764 329.524 95.8682H328.95V102.725H328.253V90.8574H333.462C333.48 91.974 333.448 92.7487 333.366 93.1816C333.284 93.61 333.104 93.8971 332.826 94.043C332.553 94.1888 331.928 94.2458 330.953 94.2139L330.741 93.5576C331.744 93.5576 332.302 93.5348 332.416 93.4893C332.535 93.4391 332.623 93.2591 332.683 92.9492C332.746 92.6348 332.771 92.1654 332.758 91.541H328.95V95.1572H333.476C333.339 97.3128 332.895 99.0674 332.143 100.421C332.694 101.123 333.357 101.715 334.132 102.198ZM332.703 95.8682H330.215C330.593 97.6546 331.088 98.9717 331.698 99.8193C332.245 98.7529 332.58 97.4359 332.703 95.8682ZM347.236 102.711H346.491V101.802H339.874V102.725H339.102V97.8711C338.017 98.2676 337.126 98.5661 336.429 98.7666L336.005 98.083C338.197 97.4906 340.065 96.7751 341.61 95.9365C341.05 95.1299 340.275 94.305 339.286 93.4619C338.58 93.9222 337.791 94.3734 336.921 94.8154L336.319 94.2139C338.429 93.307 340.198 92.0286 341.624 90.3789L342.349 90.7139C342.148 90.96 341.893 91.2311 341.583 91.5273H347.024V92.1426C345.507 94.1842 343.458 95.8454 340.879 97.126H347.236V102.711ZM345.931 92.2861H340.824C340.51 92.555 340.198 92.8057 339.888 93.0381C340.799 93.8493 341.592 94.681 342.267 95.5332C343.743 94.5944 344.965 93.512 345.931 92.2861ZM346.491 101.077V97.8711H339.874V101.077H346.491Z" fill="#4D4D4D"/>
</svg>
