<svg width="360" height="68" viewBox="0 0 360 68" fill="none" xmlns="http://www.w3.org/2000/svg">
<circle cx="34" cy="34" r="34" fill="#E50057"/>
<path d="M25.373 19.6533H23.7393V22.6816L25.127 22.0664L25.291 22.709C24.7897 22.9642 24.2725 23.2012 23.7393 23.4199V27.624C23.7393 27.9886 23.6276 28.2712 23.4043 28.4717C23.181 28.6722 22.568 28.7474 21.5654 28.6973L21.3467 27.959C21.5107 27.9727 21.709 27.9795 21.9414 27.9795C22.4609 27.9795 22.7708 27.9499 22.8711 27.8906C22.9714 27.8314 23.0215 27.7334 23.0215 27.5967V23.7002C22.3333 23.9919 21.7044 24.222 21.1348 24.3906L20.9229 23.7139C21.5335 23.5179 22.2331 23.2764 23.0215 22.9893V19.6533H21.0391V18.9424H23.0215V16.4609H23.7393V18.9424H25.373V19.6533ZM32.5166 20.0088H26.2412V16.7549H32.5166V20.0088ZM31.7852 19.3047V17.4727H26.9727V19.3047H31.7852ZM32.7969 27.6377C32.7969 27.8701 32.7308 28.0775 32.5986 28.2598C32.4665 28.4421 32.3047 28.5628 32.1133 28.6221C31.9219 28.6859 31.5186 28.7178 30.9033 28.7178C30.639 28.7178 30.3838 28.7109 30.1377 28.6973L29.8438 27.9727C30.5091 27.9909 31.1198 28 31.6758 28C31.7806 28 31.874 27.9567 31.9561 27.8701C32.0381 27.7835 32.0791 27.6878 32.0791 27.583V25.1836C29.8551 25.8991 28.1257 26.3844 26.8906 26.6396L26.5488 26.0928C26.3027 27.1045 25.8561 28.0205 25.209 28.8408L24.5938 28.4033C25.6009 27.2321 26.1045 25.7214 26.1045 23.8711V20.9727H32.7969V27.6377ZM32.0791 24.4453V21.6836H26.8428V22.6543C28.6657 22.9551 30.0671 23.249 31.0469 23.5361L30.7939 24.2197C29.1396 23.7686 27.8226 23.4792 26.8428 23.3516C26.8109 24.3633 26.7288 25.2223 26.5967 25.9287C28.6019 25.5231 30.4294 25.0286 32.0791 24.4453ZM47.0361 18.4775C46.8857 19.9906 46.5029 21.401 45.8877 22.709L45.2451 22.3877C45.6826 21.4899 46.0085 20.4212 46.2227 19.1816H43.1396C42.7842 20.0931 42.3512 20.9271 41.8408 21.6836L41.3213 21.1367C42.1735 19.8835 42.8366 18.2884 43.3105 16.3516L43.9941 16.5088C43.8301 17.2061 43.6341 17.8623 43.4062 18.4775H47.0361ZM41.5879 18.3955H38.7852V19.667H41.1094V20.3574H35.6406V19.667H38.0742V18.3955H35.2168V17.7256H38.0742V16.4473H38.7852V17.7256H41.5879V18.3955ZM47.2139 28.1846L46.7422 28.7588C45.4889 27.5146 44.639 26.0632 44.1924 24.4043C43.8005 26.0723 42.7546 27.5124 41.0547 28.7246L40.583 28.2119C41.6585 27.4873 42.4811 26.585 43.0508 25.5049C43.6204 24.4248 43.8802 22.6383 43.8301 20.1455H44.5273C44.4909 20.6742 44.4727 21.1549 44.4727 21.5879C44.4727 23.0007 44.7119 24.2448 45.1904 25.3203C45.6689 26.3958 46.3434 27.3506 47.2139 28.1846ZM41.0957 22.1348H35.6406V21.4512H41.0957V22.1348ZM41.7451 23.9941H38.7578V27.7061C38.7578 27.9202 38.7031 28.1094 38.5938 28.2734C38.4844 28.4375 38.3659 28.5446 38.2383 28.5947C38.1107 28.6494 37.8555 28.6768 37.4727 28.6768C37.2995 28.6768 37.1263 28.6699 36.9531 28.6562L36.7139 27.9453C36.9189 27.9727 37.1377 27.9863 37.3701 27.9863C37.6527 27.9863 37.8372 27.9499 37.9238 27.877C38.015 27.804 38.0605 27.7015 38.0605 27.5693V23.9941H35.0254V23.3105H41.7451V23.9941ZM37.2197 24.8486C36.764 26.2295 36.2422 27.3597 35.6543 28.2393L35.0049 27.918C35.6247 27.0703 36.1442 25.9766 36.5635 24.6367L37.2197 24.8486ZM41.5059 26.585L40.918 26.9951C40.6855 26.4847 40.2731 25.8216 39.6807 25.0059L40.2754 24.6572C40.6992 25.154 41.1094 25.7965 41.5059 26.585ZM33.1182 43.5029H25.4893C25.4893 44.2367 25.4665 45.0479 25.4209 45.9365H31.4092C31.4001 47.3037 31.318 48.5729 31.1631 49.7441C31.0081 50.9108 30.8577 51.6423 30.7119 51.9385C30.5661 52.2301 30.3587 52.4398 30.0898 52.5674C29.8255 52.695 29.2422 52.7588 28.3398 52.7588C28.0299 52.7588 27.7269 52.7542 27.4307 52.7451L27.2119 51.959C27.6494 51.9863 28.0846 52 28.5176 52C29.1921 52 29.5977 51.9635 29.7344 51.8906C29.8757 51.8177 29.9873 51.6947 30.0693 51.5215C30.1514 51.3438 30.2585 50.7399 30.3906 49.71C30.5273 48.68 30.6094 47.666 30.6367 46.668H25.3457C25.168 49.1061 23.8577 51.1159 21.415 52.6973L20.8135 52.1094C21.6611 51.6309 22.4268 50.9906 23.1104 50.1885C23.7985 49.3818 24.2383 48.5251 24.4297 47.6182C24.6211 46.7067 24.7168 45.335 24.7168 43.5029H21.0254V42.7441H26.877C26.5033 42.015 26.0544 41.3473 25.5303 40.7412L26.2412 40.4062C26.7653 41.0078 27.2598 41.7871 27.7246 42.7441H33.1182V43.5029ZM47.1318 49.7031C46.7171 51.804 46.1201 52.8545 45.3408 52.8545C45.1585 52.8545 44.9762 52.7952 44.7939 52.6768C44.6162 52.5628 44.3678 52.278 44.0488 51.8223C43.7298 51.3665 43.4427 50.8037 43.1875 50.1338C42.9323 49.4593 42.7409 48.5068 42.6133 47.2764C42.4902 46.0413 42.4014 44.8154 42.3467 43.5986H35.0254V42.8467H42.2852C42.2487 41.8076 42.235 41.0033 42.2441 40.4336H42.9756C42.9756 41.541 42.9893 42.3454 43.0166 42.8467H47.0908V43.5986H43.0439C43.0804 44.5693 43.1966 45.875 43.3926 47.5156C43.5885 49.1562 43.9212 50.332 44.3906 51.043C44.8646 51.7493 45.1836 52.1025 45.3477 52.1025C45.5755 52.1025 45.7965 51.7699 46.0107 51.1045C46.2295 50.4346 46.3662 49.8376 46.4209 49.3135L47.1318 49.7031ZM46.4756 42.1699L45.8604 42.5938C45.3317 41.9694 44.8076 41.4749 44.2881 41.1104L44.8896 40.6318C45.359 40.9417 45.8877 41.4544 46.4756 42.1699ZM41.9502 50.25C39.6852 50.8242 37.557 51.2913 35.5654 51.6514L35.3877 50.9199C36.1442 50.7969 37.1012 50.626 38.2588 50.4072V46.3467H35.7773V45.5879H41.5605V46.3467H38.9697V50.2363C40.0635 50.0039 41.057 49.7669 41.9502 49.5254V50.25Z" fill="white"/>
<path d="M75.167 32.1061V35.8939H83.6897L80.3753 39.2083L82.667 41.5L90.167 34L82.667 26.5L80.3753 28.7917L83.6897 32.1061H75.167Z" fill="#E50057"/>
<circle cx="131.333" cy="34" r="34" fill="#F2F2F2"/>
<path d="M122.373 19.6533H120.739V22.6816L122.127 22.0664L122.291 22.709C121.79 22.9642 121.272 23.2012 120.739 23.4199V27.624C120.739 27.9886 120.628 28.2712 120.404 28.4717C120.181 28.6722 119.568 28.7474 118.565 28.6973L118.347 27.959C118.511 27.9727 118.709 27.9795 118.941 27.9795C119.461 27.9795 119.771 27.9499 119.871 27.8906C119.971 27.8314 120.021 27.7334 120.021 27.5967V23.7002C119.333 23.9919 118.704 24.222 118.135 24.3906L117.923 23.7139C118.534 23.5179 119.233 23.2764 120.021 22.9893V19.6533H118.039V18.9424H120.021V16.4609H120.739V18.9424H122.373V19.6533ZM129.517 20.0088H123.241V16.7549H129.517V20.0088ZM128.785 19.3047V17.4727H123.973V19.3047H128.785ZM129.797 27.6377C129.797 27.8701 129.731 28.0775 129.599 28.2598C129.466 28.4421 129.305 28.5628 129.113 28.6221C128.922 28.6859 128.519 28.7178 127.903 28.7178C127.639 28.7178 127.384 28.7109 127.138 28.6973L126.844 27.9727C127.509 27.9909 128.12 28 128.676 28C128.781 28 128.874 27.9567 128.956 27.8701C129.038 27.7835 129.079 27.6878 129.079 27.583V25.1836C126.855 25.8991 125.126 26.3844 123.891 26.6396L123.549 26.0928C123.303 27.1045 122.856 28.0205 122.209 28.8408L121.594 28.4033C122.601 27.2321 123.104 25.7214 123.104 23.8711V20.9727H129.797V27.6377ZM129.079 24.4453V21.6836H123.843V22.6543C125.666 22.9551 127.067 23.249 128.047 23.5361L127.794 24.2197C126.14 23.7686 124.823 23.4792 123.843 23.3516C123.811 24.3633 123.729 25.2223 123.597 25.9287C125.602 25.5231 127.429 25.0286 129.079 24.4453ZM144.036 18.4775C143.886 19.9906 143.503 21.401 142.888 22.709L142.245 22.3877C142.683 21.4899 143.008 20.4212 143.223 19.1816H140.14C139.784 20.0931 139.351 20.9271 138.841 21.6836L138.321 21.1367C139.174 19.8835 139.837 18.2884 140.311 16.3516L140.994 16.5088C140.83 17.2061 140.634 17.8623 140.406 18.4775H144.036ZM138.588 18.3955H135.785V19.667H138.109V20.3574H132.641V19.667H135.074V18.3955H132.217V17.7256H135.074V16.4473H135.785V17.7256H138.588V18.3955ZM144.214 28.1846L143.742 28.7588C142.489 27.5146 141.639 26.0632 141.192 24.4043C140.8 26.0723 139.755 27.5124 138.055 28.7246L137.583 28.2119C138.659 27.4873 139.481 26.585 140.051 25.5049C140.62 24.4248 140.88 22.6383 140.83 20.1455H141.527C141.491 20.6742 141.473 21.1549 141.473 21.5879C141.473 23.0007 141.712 24.2448 142.19 25.3203C142.669 26.3958 143.343 27.3506 144.214 28.1846ZM138.096 22.1348H132.641V21.4512H138.096V22.1348ZM138.745 23.9941H135.758V27.7061C135.758 27.9202 135.703 28.1094 135.594 28.2734C135.484 28.4375 135.366 28.5446 135.238 28.5947C135.111 28.6494 134.855 28.6768 134.473 28.6768C134.299 28.6768 134.126 28.6699 133.953 28.6562L133.714 27.9453C133.919 27.9727 134.138 27.9863 134.37 27.9863C134.653 27.9863 134.837 27.9499 134.924 27.877C135.015 27.804 135.061 27.7015 135.061 27.5693V23.9941H132.025V23.3105H138.745V23.9941ZM134.22 24.8486C133.764 26.2295 133.242 27.3597 132.654 28.2393L132.005 27.918C132.625 27.0703 133.144 25.9766 133.563 24.6367L134.22 24.8486ZM138.506 26.585L137.918 26.9951C137.686 26.4847 137.273 25.8216 136.681 25.0059L137.275 24.6572C137.699 25.154 138.109 25.7965 138.506 26.585ZM129.906 42.1699C129.432 42.8398 128.995 43.3685 128.594 43.7559L128.061 43.25C128.421 42.8854 128.76 42.4889 129.079 42.0605H123.959C123.581 42.5391 123.155 42.9583 122.681 43.3184L122.195 42.833C122.997 42.2314 123.674 41.4089 124.226 40.3652L124.909 40.6045L124.465 41.377H129.906V42.1699ZM121.847 41.7666H118.319V41.0967H121.847V41.7666ZM130.2 44.7334L129.893 45.417C128.102 45.1527 126.707 44.6081 125.709 43.7832C124.907 44.5534 123.838 45.0843 122.503 45.376L122.127 44.7061C123.845 44.4417 125.03 43.7422 125.682 42.6074L126.447 42.7441C126.42 42.8581 126.313 43.0404 126.126 43.291C127.069 44.0658 128.427 44.5465 130.2 44.7334ZM121.956 44.2891H118.039V43.585H121.956V44.2891ZM128.102 50.7422H122.544L122.893 51.2002C121.448 51.9294 119.917 52.4626 118.299 52.7998L117.937 52.1367C119.436 51.8861 120.86 51.4212 122.209 50.7422H120.035V45.6152H128.102V50.7422ZM127.377 47.0713V46.2715H120.78V47.0713H127.377ZM127.377 48.5684V47.7002H120.78V48.5684H127.377ZM127.377 50.0791V49.1973H120.78V50.0791H127.377ZM130.118 52.1709L129.783 52.8135C128.421 52.3031 127.067 51.9111 125.723 51.6377L126.071 51.0088C127.525 51.305 128.874 51.6924 130.118 52.1709ZM137.624 45.7109H135.464V52.6973H134.739V45.7109H132.148V45.041H134.739V40.4199H135.464V45.041H137.624V45.7109ZM144.187 48.8896L142.744 49.1699V52.7246H142.033V49.3135L137.692 50.127L137.597 49.4229L142.033 48.582V40.4609H142.744V48.4453L144.091 48.1924L144.187 48.8896ZM137.802 41.6709C137.501 42.7054 137.161 43.5781 136.783 44.2891L136.113 43.9609C136.523 43.2728 136.872 42.4251 137.159 41.418L137.802 41.6709ZM133.912 43.9199L133.215 44.2002C133.055 43.5166 132.714 42.6826 132.189 41.6982L132.818 41.418C133.347 42.3568 133.712 43.1908 133.912 43.9199ZM141.261 43.4072L140.714 43.9473C140.149 43.3092 139.399 42.6712 138.465 42.0332L138.95 41.5137C139.725 42.0059 140.495 42.637 141.261 43.4072ZM141.021 47.1807L140.475 47.7412C140.001 47.0348 139.237 46.2555 138.185 45.4033L138.711 44.8906C139.618 45.6243 140.388 46.3877 141.021 47.1807ZM137.692 48.8896L136.961 49.1289C136.852 48.4954 136.562 47.6979 136.093 46.7363L136.742 46.5107C137.212 47.4769 137.528 48.2699 137.692 48.8896ZM133.994 46.7227C133.666 48.3177 133.233 49.6325 132.695 50.667L131.991 50.3594C132.538 49.3522 132.987 48.0693 133.338 46.5107L133.994 46.7227Z" fill="#4D4D4D"/>
<path d="M172.5 32.1061V35.8939H181.023L177.708 39.2083L180 41.5L187.5 34L180 26.5L177.708 28.7917L181.023 32.1061H172.5Z" fill="#E5E5E5"/>
<circle cx="228.667" cy="34" r="34" fill="#F2F2F2"/>
<path d="M228.275 27.583L227.756 28.1367C226.544 27.3757 225.568 26.3639 224.83 25.1016V27.6924C224.83 27.9886 224.739 28.237 224.557 28.4375C224.374 28.6426 223.932 28.7451 223.23 28.7451C222.989 28.7451 222.775 28.7337 222.588 28.7109L222.349 28.0137C222.549 28.0273 222.818 28.0342 223.155 28.0342C223.565 28.0342 223.823 28.0046 223.928 27.9453C224.033 27.8815 224.085 27.7744 224.085 27.624V22.1484H221.371V17.7939H223.244C223.513 17.4111 223.771 16.944 224.017 16.3926L224.714 16.7002C224.522 17.1149 224.308 17.4795 224.071 17.7939H227.421V22.1484H224.83V23.7412C224.903 23.9417 225.037 24.2038 225.233 24.5273C225.862 24.0625 226.437 23.4883 226.956 22.8047L227.448 23.3652C226.929 23.9805 226.32 24.5638 225.623 25.1152C226.311 26.0723 227.195 26.8949 228.275 27.583ZM226.676 19.626V18.4502H222.096V19.626H226.676ZM226.676 21.4922V20.3027H222.096V21.4922H226.676ZM220.947 19.0107C220.154 20.5055 218.933 22.1393 217.283 23.9121C218.031 23.8164 218.787 23.6432 219.553 23.3926C219.462 23.1146 219.339 22.8206 219.184 22.5107L219.86 22.3604C220.175 22.9756 220.444 23.6751 220.667 24.459L219.997 24.7256C219.961 24.5433 219.89 24.304 219.785 24.0078C218.701 24.3815 217.502 24.6344 216.189 24.7666L216.025 24.2061C217.028 23.2126 217.965 22.1393 218.835 20.9863C217.86 21.1595 217.049 21.262 216.401 21.2939L216.36 20.7197C217.527 19.307 218.366 17.8919 218.876 16.4746L219.594 16.7412C219.074 18.0309 218.359 19.2728 217.447 20.4668C218.113 20.4349 218.762 20.3369 219.396 20.1729C219.769 19.6077 220.054 19.127 220.25 18.7305L220.947 19.0107ZM223.483 23.3242C223.36 25.416 222.442 27.0726 220.729 28.2939L220.264 27.7061C221.663 26.79 222.474 25.5527 222.697 23.9941H221.036V23.3242H223.483ZM220.995 26.6396L220.346 26.7969C220.186 26.1999 219.972 25.6576 219.703 25.1699L220.387 25.0605C220.66 25.5938 220.863 26.1201 220.995 26.6396ZM219.313 28.2803L218.555 28.4648C218.546 27.4258 218.438 26.3753 218.233 25.3135L218.917 25.2451C219.136 26.2477 219.268 27.2594 219.313 28.2803ZM217.495 25.3135C217.326 26.4938 217.026 27.6514 216.593 28.7861L215.923 28.4307C216.287 27.5921 216.581 26.5348 216.805 25.2588L217.495 25.3135ZM242.132 28.3623H229.978V27.6377H235.2V16.4746H235.945V20.8633H241.517V21.6016H235.945V27.6377H242.132V28.3623ZM219.525 40.6592C219.393 41.042 219.2 41.5228 218.944 42.1016L218.568 42.9424V52.7109H217.857V44.3164C217.279 45.2552 216.682 46.0938 216.066 46.832L215.643 46.0938C216.868 44.6764 217.919 42.7669 218.794 40.3652L219.525 40.6592ZM228.132 43.7832H226.327V51.7607C226.327 51.9932 226.229 52.2074 226.033 52.4033C225.837 52.5993 225.607 52.6973 225.343 52.6973H223.388L223.094 51.9863H225.179C225.293 51.9863 225.393 51.9453 225.479 51.8633C225.566 51.7812 225.609 51.6764 225.609 51.5488V43.7832H219.464V43.0244H225.609V40.4473H226.327V43.0244H228.132V43.7832ZM223.613 49.2109L222.882 49.4775C222.426 48.3154 221.754 47.0986 220.865 45.8271L221.597 45.5332C222.472 46.832 223.144 48.0579 223.613 49.2109ZM242.036 42.4775C241.886 43.9906 241.503 45.401 240.888 46.709L240.245 46.3877C240.683 45.4899 241.008 44.4212 241.223 43.1816H238.14C237.784 44.0931 237.351 44.9271 236.841 45.6836L236.321 45.1367C237.174 43.8835 237.837 42.2884 238.311 40.3516L238.994 40.5088C238.83 41.2061 238.634 41.8623 238.406 42.4775H242.036ZM236.588 42.3955H233.785V43.667H236.109V44.3574H230.641V43.667H233.074V42.3955H230.217V41.7256H233.074V40.4473H233.785V41.7256H236.588V42.3955ZM242.214 52.1846L241.742 52.7588C240.489 51.5146 239.639 50.0632 239.192 48.4043C238.8 50.0723 237.755 51.5124 236.055 52.7246L235.583 52.2119C236.659 51.4873 237.481 50.585 238.051 49.5049C238.62 48.4248 238.88 46.6383 238.83 44.1455H239.527C239.491 44.6742 239.473 45.1549 239.473 45.5879C239.473 47.0007 239.712 48.2448 240.19 49.3203C240.669 50.3958 241.343 51.3506 242.214 52.1846ZM236.096 46.1348H230.641V45.4512H236.096V46.1348ZM236.745 47.9941H233.758V51.7061C233.758 51.9202 233.703 52.1094 233.594 52.2734C233.484 52.4375 233.366 52.5446 233.238 52.5947C233.111 52.6494 232.855 52.6768 232.473 52.6768C232.299 52.6768 232.126 52.6699 231.953 52.6562L231.714 51.9453C231.919 51.9727 232.138 51.9863 232.37 51.9863C232.653 51.9863 232.837 51.9499 232.924 51.877C233.015 51.804 233.061 51.7015 233.061 51.5693V47.9941H230.025V47.3105H236.745V47.9941ZM232.22 48.8486C231.764 50.2295 231.242 51.3597 230.654 52.2393L230.005 51.918C230.625 51.0703 231.144 49.9766 231.563 48.6367L232.22 48.8486ZM236.506 50.585L235.918 50.9951C235.686 50.4847 235.273 49.8216 234.681 49.0059L235.275 48.6572C235.699 49.154 236.109 49.7965 236.506 50.585Z" fill="#4D4D4D"/>
<path d="M269.833 32.1061V35.8939H278.356L275.041 39.2083L277.333 41.5L284.833 34L277.333 26.5L275.041 28.7917L278.356 32.1061H269.833Z" fill="#E5E5E5"/>
<circle cx="326" cy="34" r="34" fill="#F2F2F2"/>
<path d="M317.373 19.6533H315.739V22.6816L317.127 22.0664L317.291 22.709C316.79 22.9642 316.272 23.2012 315.739 23.4199V27.624C315.739 27.9886 315.628 28.2712 315.404 28.4717C315.181 28.6722 314.568 28.7474 313.565 28.6973L313.347 27.959C313.511 27.9727 313.709 27.9795 313.941 27.9795C314.461 27.9795 314.771 27.9499 314.871 27.8906C314.971 27.8314 315.021 27.7334 315.021 27.5967V23.7002C314.333 23.9919 313.704 24.222 313.135 24.3906L312.923 23.7139C313.534 23.5179 314.233 23.2764 315.021 22.9893V19.6533H313.039V18.9424H315.021V16.4609H315.739V18.9424H317.373V19.6533ZM324.517 20.0088H318.241V16.7549H324.517V20.0088ZM323.785 19.3047V17.4727H318.973V19.3047H323.785ZM324.797 27.6377C324.797 27.8701 324.731 28.0775 324.599 28.2598C324.466 28.4421 324.305 28.5628 324.113 28.6221C323.922 28.6859 323.519 28.7178 322.903 28.7178C322.639 28.7178 322.384 28.7109 322.138 28.6973L321.844 27.9727C322.509 27.9909 323.12 28 323.676 28C323.781 28 323.874 27.9567 323.956 27.8701C324.038 27.7835 324.079 27.6878 324.079 27.583V25.1836C321.855 25.8991 320.126 26.3844 318.891 26.6396L318.549 26.0928C318.303 27.1045 317.856 28.0205 317.209 28.8408L316.594 28.4033C317.601 27.2321 318.104 25.7214 318.104 23.8711V20.9727H324.797V27.6377ZM324.079 24.4453V21.6836H318.843V22.6543C320.666 22.9551 322.067 23.249 323.047 23.5361L322.794 24.2197C321.14 23.7686 319.823 23.4792 318.843 23.3516C318.811 24.3633 318.729 25.2223 318.597 25.9287C320.602 25.5231 322.429 25.0286 324.079 24.4453ZM339.036 18.4775C338.886 19.9906 338.503 21.401 337.888 22.709L337.245 22.3877C337.683 21.4899 338.008 20.4212 338.223 19.1816H335.14C334.784 20.0931 334.351 20.9271 333.841 21.6836L333.321 21.1367C334.174 19.8835 334.837 18.2884 335.311 16.3516L335.994 16.5088C335.83 17.2061 335.634 17.8623 335.406 18.4775H339.036ZM333.588 18.3955H330.785V19.667H333.109V20.3574H327.641V19.667H330.074V18.3955H327.217V17.7256H330.074V16.4473H330.785V17.7256H333.588V18.3955ZM339.214 28.1846L338.742 28.7588C337.489 27.5146 336.639 26.0632 336.192 24.4043C335.8 26.0723 334.755 27.5124 333.055 28.7246L332.583 28.2119C333.659 27.4873 334.481 26.585 335.051 25.5049C335.62 24.4248 335.88 22.6383 335.83 20.1455H336.527C336.491 20.6742 336.473 21.1549 336.473 21.5879C336.473 23.0007 336.712 24.2448 337.19 25.3203C337.669 26.3958 338.343 27.3506 339.214 28.1846ZM333.096 22.1348H327.641V21.4512H333.096V22.1348ZM333.745 23.9941H330.758V27.7061C330.758 27.9202 330.703 28.1094 330.594 28.2734C330.484 28.4375 330.366 28.5446 330.238 28.5947C330.111 28.6494 329.855 28.6768 329.473 28.6768C329.299 28.6768 329.126 28.6699 328.953 28.6562L328.714 27.9453C328.919 27.9727 329.138 27.9863 329.37 27.9863C329.653 27.9863 329.837 27.9499 329.924 27.877C330.015 27.804 330.061 27.7015 330.061 27.5693V23.9941H327.025V23.3105H333.745V23.9941ZM329.22 24.8486C328.764 26.2295 328.242 27.3597 327.654 28.2393L327.005 27.918C327.625 27.0703 328.144 25.9766 328.563 24.6367L329.22 24.8486ZM333.506 26.585L332.918 26.9951C332.686 26.4847 332.273 25.8216 331.681 25.0059L332.275 24.6572C332.699 25.154 333.109 25.7965 333.506 26.585ZM324.653 45.1709H323.888V42.6758H314.215V45.1709H313.429V41.9512H318.624C318.259 41.222 318.025 40.764 317.92 40.5771L318.692 40.3242C319.039 40.9258 319.305 41.4681 319.492 41.9512H324.653V45.1709ZM322.903 44.877H315.192V44.1865H322.903V44.877ZM325.159 47.6318H320.552V51.4395C320.552 51.5579 320.604 51.6468 320.709 51.7061C320.814 51.7607 321.347 51.7881 322.309 51.7881C323.165 51.7881 323.676 51.7562 323.84 51.6924C324.008 51.624 324.113 50.9336 324.154 49.6211L324.906 49.9014C324.879 51.1136 324.733 51.8542 324.469 52.123C324.204 52.3919 323.537 52.5264 322.466 52.5264C321.254 52.5264 320.565 52.4967 320.401 52.4375C320.242 52.3783 320.105 52.262 319.991 52.0889C319.882 51.9157 319.827 51.6992 319.827 51.4395V47.6318H317.558C317.567 50.3206 316.19 52.0137 313.429 52.7109L312.937 52.0547C315.584 51.4714 316.858 49.9971 316.758 47.6318H312.95V46.9209H325.159V47.6318ZM339.118 49.9697C339.05 50.7718 338.899 51.444 338.667 51.9863C338.435 52.5241 338.152 52.793 337.819 52.793C337.464 52.793 337.04 52.4922 336.548 51.8906C336.056 51.2891 335.698 50.667 335.475 50.0244C334.417 51.0954 333.308 52.0068 332.146 52.7588L331.599 52.1846C333.148 51.182 334.338 50.1908 335.167 49.2109C334.716 47.5658 334.426 45.6676 334.299 43.5166H329.124V45.417H332.863C332.85 46.5745 332.793 47.6068 332.692 48.5137C332.597 49.416 332.487 49.972 332.364 50.1816C332.246 50.3913 332.077 50.5576 331.858 50.6807C331.64 50.7992 331.227 50.8584 330.621 50.8584C330.434 50.8584 330.204 50.8516 329.931 50.8379L329.698 50.0791C330.022 50.1292 330.339 50.1543 330.648 50.1543C331.045 50.1543 331.307 50.1247 331.435 50.0654C331.562 50.0016 331.665 49.9242 331.742 49.833C331.82 49.7373 331.909 49.2975 332.009 48.5137C332.109 47.7253 332.159 46.9368 332.159 46.1484H329.138C329.051 48.7142 328.504 50.9359 327.497 52.8135L326.923 52.2939C327.921 50.4938 328.42 48.1969 328.42 45.4033V42.7988H334.244C334.208 41.778 334.189 40.9941 334.189 40.4473H334.921C334.921 41.1628 334.944 41.9466 334.989 42.7988H338.852V43.5166H335.017C335.09 45.3167 335.322 46.9915 335.714 48.541C336.498 47.4701 337.129 46.1781 337.607 44.665L338.346 44.9043C337.689 46.6953 336.901 48.2015 335.98 49.4229C336.236 50.1475 336.559 50.7513 336.951 51.2344C337.343 51.7129 337.603 51.9521 337.73 51.9521C337.872 51.9521 338.013 51.6878 338.154 51.1592C338.3 50.6305 338.373 50.1087 338.373 49.5938L339.118 49.9697ZM338.359 42.1562L337.73 42.6074C337.325 42.1152 336.789 41.6253 336.124 41.1377L336.712 40.6592C337.354 41.0876 337.904 41.5866 338.359 42.1562Z" fill="#4D4D4D"/>
</svg>
